<?xml version="1.0" standalone="no"?>
<!DOCTYPE svg PUBLIC "-//W3C//DTD SVG 20010904//EN"
 "http://www.w3.org/TR/2001/REC-SVG-20010904/DTD/svg10.dtd">
<svg version="1.0" xmlns="http://www.w3.org/2000/svg"
 width="512.000000pt" height="512.000000pt" viewBox="0 0 512.000000 512.000000"
 preserveAspectRatio="xMidYMid meet">
<metadata>
Created by potrace 1.14, written by Peter Selinger 2001-2017
</metadata>
<g transform="translate(0.000000,512.000000) scale(0.100000,-0.100000)"
fill="#000000" stroke="none">
<path d="M2398 5115 c-1 -2 -31 -6 -66 -9 -34 -3 -73 -8 -85 -11 -12 -3 -34
-7 -49 -10 -640 -119 -1201 -587 -1433 -1194 -37 -98 -88 -282 -100 -361 -4
-25 -9 -52 -10 -61 -18 -97 -24 -320 -11 -449 30 -318 140 -631 310 -884 55
-80 375 -511 411 -552 5 -7 19 -24 30 -40 18 -24 134 -178 519 -689 67 -88
124 -164 129 -170 4 -5 20 -26 35 -46 15 -20 36 -48 47 -63 27 -38 133 -178
148 -196 7 -8 74 -97 149 -197 l137 -183 118 156 c65 86 166 220 225 298 59
77 122 161 140 186 18 25 35 47 39 50 3 3 25 32 50 65 24 33 49 66 56 75 7 8
98 130 204 270 106 140 321 426 479 636 288 382 366 499 439 657 52 114 115
303 136 407 7 39 19 107 21 125 1 11 5 52 10 90 13 115 5 428 -11 455 -2 3 -6
29 -10 59 -11 88 -72 297 -120 411 -69 162 -193 368 -289 480 -124 143 -359
351 -451 397 -16 9 -37 21 -45 28 -25 22 -210 112 -307 149 -88 34 -284 88
-371 101 -23 4 -54 9 -70 11 -34 6 -399 14 -404 9z"/>
</g>
</svg>
